<svg xmlns="http://www.w3.org/2000/svg" xmlns:xlink="http://www.w3.org/1999/xlink" width="410" zoomAndPan="magnify" viewBox="0 0 307.5 135.000003" height="180" preserveAspectRatio="xMidYMid meet" version="1.2"><defs><clipPath id="576bc50f5a"><path d="M 18.5625 19.875 L 108.644531 19.875 L 108.644531 106 L 18.5625 106 Z M 18.5625 19.875 "/></clipPath></defs><g id="9fc8b3f254"><g clip-rule="nonzero" clip-path="url(#576bc50f5a)"><path style=" stroke:none;fill-rule:nonzero;fill:#ff3131;fill-opacity:1;" d="M 83.296875 105.988281 C 76.34375 105.988281 69.785156 103.273438 64.867188 98.351562 L 21.828125 55.332031 L 66.839844 55.332031 C 72.714844 55.199219 77.445312 50.375 77.445312 44.484375 C 77.445312 38.5 72.5625 33.617188 66.574219 33.617188 L 49.855469 33.617188 L 59.546875 44.125 L 40.734375 43.953125 L 18.5625 19.898438 L 66.59375 19.898438 C 80.140625 19.898438 91.164062 30.917969 91.164062 44.464844 C 91.164062 48.550781 90.15625 52.390625 88.386719 55.789062 C 93.195312 56.757812 97.640625 59.132812 101.195312 62.6875 C 106.003906 67.476562 108.644531 73.859375 108.644531 80.644531 C 108.644531 94.628906 97.28125 105.988281 83.296875 105.988281 Z M 54.910156 69.035156 L 74.554688 88.679688 C 76.894531 91.015625 79.992188 92.289062 83.296875 92.289062 C 89.71875 92.289062 94.945312 87.066406 94.945312 80.644531 C 94.945312 77.527344 93.726562 74.601562 91.523438 72.398438 C 89.320312 70.210938 86.414062 68.996094 83.296875 68.996094 C 83.277344 68.996094 83.277344 68.996094 83.257812 68.996094 L 67.011719 69.050781 C 66.878906 69.050781 66.726562 69.050781 66.59375 69.050781 L 54.910156 69.050781 Z M 54.910156 69.035156 "/></g><g style="fill:#ffffff;fill-opacity:1;"><g transform="translate(103.045701, 95.864754)"><path style="stroke:none" d="M 7.96875 -59.375 L 19 -59.375 L 19 -9.328125 L 50.046875 -9.328125 L 50.046875 0 L 7.96875 0 Z M 7.96875 -59.375 "/></g></g><g style="fill:#ffffff;fill-opacity:1;"><g transform="translate(153.852238, 95.864754)"><path style="stroke:none" d="M 7.96875 -59.375 L 19 -59.375 L 19 0 L 7.96875 0 Z M 7.96875 -59.375 "/></g></g><g style="fill:#ffffff;fill-opacity:1;"><g transform="translate(180.909481, 95.864754)"><path style="stroke:none" d="M 20.015625 -50.046875 L 0.34375 -50.046875 L 0.34375 -59.375 L 50.734375 -59.375 L 50.734375 -50.046875 L 31.046875 -50.046875 L 31.046875 0 L 20.015625 0 Z M 20.015625 -50.046875 "/></g></g><g style="fill:#ffffff;fill-opacity:1;"><g transform="translate(231.970482, 95.864754)"><path style="stroke:none" d="M 54.125 -9.328125 L 54.125 0 L 3.484375 0 L 3.484375 -7.375 L 38.421875 -50.046875 L 4.078125 -50.046875 L 4.078125 -59.375 L 53.015625 -59.375 L 53.015625 -52 L 18.0625 -9.328125 Z M 54.125 -9.328125 "/></g></g></g></svg>